PathFileType	4	(X/Y/Z)	Patient4_TMGait_0pt8_01_right_34.trc.trc
DataRate	CameraRate	NumFrames	NumMarkers	Units	OrigDataRate	OrigDataStartFrame	OrigNumFrames
89.171974522293	89.171974522293	4	33	mm	89.171974522293	1	       141
Frame#	Time	Sacral			L.Shoulder			Chest			R.Shoulder			Neck			R.ASIS			L.ASIS			R.Thigh.Superior			R.Thigh.Lateral			R.Thigh.Inferior			R.Patella			L.Thigh.Superior			L.Thigh.Lateral			L.Thigh.Inferior			L.Patella			L.Shank.Superior			L.Shank.Lateral			L.Shank.Inferior			R.Shank.Superior			R.Shank.Lateral			R.Shank.Inferior			R.Heel			R.Midfoot.Superior			R.Midfoot.Lateral			R.Toe			L.Heel			L.Midfoot.Lateral			L.Midfoot.Superior			L.Toe			L.Elbow			L.Wrist			R.Elbow			R.Wrist			
		X1	Y1	Z1	X2	Y2	Z2	X3	Y3	Z3	X4	Y4	Z4	X5	Y5	Z5	X6	Y6	Z6	X7	Y7	Z7	X8	Y8	Z8	X9	Y9	Z9	X10	Y10	Z10	X11	Y11	Z11	X12	Y12	Z12	X13	Y13	Z13	X14	Y14	Z14	X15	Y15	Z15	X16	Y16	Z16	X17	Y17	Z17	X18	Y18	Z18	X19	Y19	Z19	X20	Y20	Z20	X21	Y21	Z21	X22	Y22	Z22	X23	Y23	Z23	X24	Y24	Z24	X25	Y25	Z25	X26	Y26	Z26	X27	Y27	Z27	X28	Y28	Z28	X29	Y29	Z29	X30	Y30	Z30	X31	Y31	Z31	X32	Y32	Z32	X33	Y33	Z33	

1	38.070000000000	854.381211948027	1011.438682996992	447.482351052002	1039.411622345795	1439.832889714060	276.514424597857	1141.025363176808	1368.686092771476	437.599985953342	1054.535989969628	1439.410120495988	612.333191973168	1023.325186799806	1498.017502500823	435.268663484556	1079.352821149416	943.373922816883	567.085827458091	1070.388187576359	965.942202503531	293.378018732504	1164.259945288325	778.324933761952	530.851016588053	1129.104149987437	655.846471809935	604.013108166102	1218.982718347449	619.275193057489	523.446992758580	1238.137162738084	502.946031025850	543.701473385774	1118.224169056408	753.075936595204	320.305143744041	1027.450437396422	638.230546240989	261.441151351030	1111.675746212447	559.595334738272	325.161306838403	1111.764188674901	490.299990365132	335.435572488233	1083.287521203370	417.671525569004	327.414847148764	991.044011128716	304.206219631118	280.733597106167	1043.237868286053	193.245066351514	350.909211013304	1155.881554610209	431.530922091118	550.217276924599	1029.860325893594	404.347326984191	609.141108745851	1006.146959786590	297.029546489226	560.674574312850	802.897649075725	262.643213146892	529.179767504199	958.289546246786	174.870192125453	571.341988088443	849.781686518249	192.390958778700	602.343029855818	1001.829018462364	52.336851576725	595.733825466941	915.186903947468	38.070303938547	399.352418878319	983.270173989421	35.625623207062	313.442056152526	1067.672948345988	97.018598537446	335.935248620936	1193.959326446972	46.665385248094	297.282432108041	1026.797203038187	1096.167961617180	133.255759368776	1129.953624417409	854.304141712948	139.832444193995	1049.391813184905	1087.552909066580	720.178349995242	1297.305350886754	1029.503907176291	689.187253921857	
2	38.081214285714	853.115164938010	1011.618718410331	446.289578302582	1039.692042913071	1440.584921507677	276.572733379842	1140.161519997306	1368.923024890767	438.124743286526	1052.578678118332	1439.121126873629	612.502685951253	1022.747480715298	1498.413814249104	435.346471023015	1077.909329927246	944.556433990157	566.373577720481	1069.528037622176	966.337563231503	292.837029691288	1165.351815825408	782.932766989886	530.385417698968	1133.442963990453	660.031706994884	604.173032149954	1223.847077961032	625.366701724476	523.447160591939	1246.149750492132	510.183784367037	544.037302468474	1115.121143316062	752.057748119193	320.005614090935	1022.483554514848	638.329527358256	260.994938128352	1105.073835572345	558.544218936776	325.036817730520	1103.972321628080	489.391129079812	335.453369977049	1075.515351493633	417.229750398192	327.269316484661	982.773935531854	304.162112347236	280.576202864784	1034.344677384548	193.001181958922	350.857622165091	1166.948456256584	436.087025705261	550.828379602625	1042.631070297588	403.192474940982	609.613520927415	1024.063984754197	294.948877991053	561.303933702082	823.124369130502	250.518459561506	529.782731496657	982.470614029344	171.899733852353	573.115649440524	873.247500854167	183.362794347091	603.324751923547	1031.881456731574	51.718503157582	597.544175878135	905.671993993206	38.064898293288	399.351286799697	973.790922400551	35.632034772945	313.422000795588	1058.236032646191	96.955286772186	335.932043821806	1184.528984345766	46.488605367490	297.254388202491	1037.024702434635	1098.530414216335	130.761072765318	1154.345562672455	864.607678924456	138.569217521303	1039.258230054999	1087.037932215349	718.299348059372	1277.656584528356	1004.162338789282	693.612556295485	
3	38.092428571429	851.876873841209	1011.791798333283	445.128493373111	1039.998018672241	1441.320608510929	276.644625498708	1139.335675648043	1369.136381447398	438.647752058791	1050.683650203647	1438.807697236579	612.677891209713	1022.195962318384	1498.789849172310	435.444959844585	1076.497451519904	945.698031917021	565.712488579717	1068.694611146813	966.702588544033	292.319724587548	1166.383078764781	787.419944869555	529.948941836408	1137.606853616139	664.096853819831	604.332859558580	1228.517159222325	631.280219178430	523.470404938065	1253.880044637940	517.265021544425	544.413822171518	1112.030870720898	751.035795240228	319.788007256893	1017.607462496917	638.413623846636	260.568816326759	1098.567358655021	557.500013189370	324.943055295692	1096.299064680481	488.496800766409	335.483064745864	1067.853973971980	416.782919411760	327.141586931436	974.623276643077	304.112644556580	280.427606607983	1025.555715755320	192.752157251305	350.823477739848	1177.762591513591	440.520038484244	551.478716755313	1055.223492197420	401.881515121917	610.150016193019	1041.852850605758	292.762444599488	562.014467493398	843.320881780007	238.271965884563	530.467634345180	1006.538685083847	168.793330190461	574.929889956669	896.661295668990	174.238211782411	604.406903024706	1061.827095942567	51.063854108254	599.480147206010	896.284414342969	38.056036504767	399.348735415052	964.433802237951	35.636179475809	313.403855831329	1048.922613309530	96.894496314536	335.933781665368	1175.219201526905	46.318460192082	297.228333033189	1047.027870650896	1100.899463699182	128.337741239171	1178.330745420344	875.010469657654	137.417643336704	1029.457237536199	1086.497359221475	716.512611239562	1257.929129643178	979.301320090601	697.956808423802	
4	38.103642857143	850.703723033810	1011.935406089140	444.029580401196	1040.363718005420	1442.015289229866	276.757185452831	1138.592195574768	1369.286442692112	439.179492841592	1048.920420980665	1438.428522389342	612.877041413643	1021.704401592336	1499.111809674734	435.594544876882	1075.157639779569	946.750858532704	565.150449262197	1067.920300031411	966.998708342855	291.848708633584	1167.280431504678	791.618193038688	529.581794679235	1141.385860246066	667.881557258372	604.519354527576	1232.755360533307	636.783420095941	523.556639223611	1261.014909544169	524.019292069753	544.871976153759	1108.939849326602	749.986642599052	319.718783352610	1012.854055130292	638.464557649179	260.179514215036	1092.178431519196	556.454937759630	324.900659895423	1088.777732250484	487.620368348417	335.528401424229	1060.326130743766	416.322470017193	327.042892473655	966.613739181820	304.054385757281	280.293293910104	1016.877367390139	192.492405275713	350.815796164227	1188.100006630354	444.702929641499	552.214876752228	1067.596597399077	400.221913513695	610.851353899076	1059.568219514428	290.373201130383	562.896242393454	863.788350888601	225.693160225073	531.370245251560	1030.664606303786	165.489218691310	576.830644627360	920.327204985280	164.911504688210	605.712882410378	1091.881712983333	50.515133221571	601.619416595796	887.037619498524	38.045312303604	399.342557024750	955.207681030635	35.637265955201	313.389366281589	1039.743417720913	96.836995258509	335.944067613822	1166.037559676109	46.156086985459	297.206073752639	1056.676926307567	1103.296806089387	126.058431204808	1201.654447649212	885.802250409928	136.514655967602	1020.215723060608	1085.909523628402	714.893415858520	1237.791993148114	955.373840382340	702.167195082939	
